<svg xmlns="http://www.w3.org/2000/svg" width="32" height="32" viewBox="0 0 32 32" fill="none"><path d="M27.2667 25H4.73333C3.77653 25 3 24.2669 3 23.3636V8.63636C3 7.73309 3.77653 7 4.73333 7H27.2667C28.2235 7 29 7.73309 29 8.63636V23.3636C29 24.2669 28.2235 25 27.2667 25Z" fill="#A6732B"></path><rect x="3" y="11" width="26" height="3" fill="#FAD48D"></rect><path d="M15.2174 20.8359H13.2972L12.8954 22H12L13.8726 17H14.6454L16.5214 22H15.6226L15.2174 20.8359ZM13.5389 20.1353H14.9757L14.2573 18.0611L13.5389 20.1353Z" fill="#FFFFFF"></path><path d="M20.2597 17.7005H18.714V22H17.8594V17.7005H16.3273V17H20.2597V17.7005Z" fill="#FFFFFF"></path><path d="M22.0302 17L23.4601 20.8324L24.8867 17H26V22H25.142V20.3516L25.2271 18.147L23.7631 22H23.1469L21.6863 18.1504L21.7714 20.3516V22H20.9134V17H22.0302Z" fill="#FFFFFF"></path></svg>