<svg xmlns="http://www.w3.org/2000/svg" width="32" height="32" viewBox="0 0 32 32" fill="none"><path d="M8.97908 13.2568H5.71802V27.4138H8.97908V13.2568Z" fill="#1DBABF"></path><path d="M14.4139 13.2568H11.1528V27.4138H14.4139V13.2568Z" fill="#1DBABF"></path><path d="M19.8494 13.2568H16.5884V27.4138H19.8494V13.2568Z" fill="#1DBABF"></path><path d="M25.2843 13.2568H22.0232V27.4138H25.2843V13.2568Z" fill="#1DBABF"></path><path d="M27.7186 10.6005L15.7613 4.06653C15.6815 4.02288 15.592 4 15.501 4C15.41 4 15.3205 4.02288 15.2407 4.06653L3.28341 10.6005C3.1977 10.6473 3.12617 10.7165 3.07634 10.8006C3.02651 10.8847 3.00023 10.9807 3.00024 11.0786V14.3455C3.00024 14.49 3.05751 14.6284 3.15943 14.7306C3.26136 14.8327 3.39961 14.89 3.54375 14.89H27.4582C27.6024 14.89 27.7406 14.8327 27.8426 14.7306C27.9445 14.6284 28.0017 14.49 28.0017 14.3455V11.0786C28.0018 10.9807 27.9755 10.8847 27.9256 10.8006C27.8758 10.7165 27.8043 10.6473 27.7186 10.6005Z" fill="#009BA1"></path><path d="M27.4582 25.7803H3.54375C3.39961 25.7803 3.26136 25.8376 3.15943 25.9398C3.05751 26.0419 3.00024 26.1804 3.00024 26.3248V27.4138C3.00024 27.5582 3.05751 27.6967 3.15943 27.7988C3.26136 27.9009 3.39961 27.9583 3.54375 27.9583H27.4582C27.6024 27.9583 27.7406 27.9009 27.8426 27.7988C27.9445 27.6967 28.0017 27.5582 28.0017 27.4138V26.3248C28.0017 26.1804 27.9445 26.0419 27.8426 25.9398C27.7406 25.8376 27.6024 25.7803 27.4582 25.7803Z" fill="#009BA1"></path><path d="M15.5007 12.1675C16.7014 12.1675 17.6747 11.1924 17.6747 9.98951C17.6747 8.78664 16.7014 7.81152 15.5007 7.81152C14.3 7.81152 13.3267 8.78664 13.3267 9.98951C13.3267 11.1924 14.3 12.1675 15.5007 12.1675Z" fill="#FFFFFF"></path></svg>