<svg xmlns="http://www.w3.org/2000/svg" width="32" height="32" viewBox="0 0 32 32" fill="none"><path d="M20.6954 15.5096C22.4243 15.5096 23.8258 14.1042 23.8258 12.3705C23.8258 10.6369 22.4243 9.23145 20.6954 9.23145C18.9665 9.23145 17.5649 10.6369 17.5649 12.3705C17.5649 14.1042 18.9665 15.5096 20.6954 15.5096Z" fill="#07A35D"></path><path d="M13.3917 10.2781C15.1206 10.2781 16.5221 8.87273 16.5221 7.13907C16.5221 5.40541 15.1206 4 13.3917 4C11.6628 4 10.2612 5.40541 10.2612 7.13907C10.2612 8.87273 11.6628 10.2781 13.3917 10.2781Z" fill="#07A35D"></path><path d="M14.4349 7.66257H12.3479C12.0595 7.66257 11.8262 7.42856 11.8262 7.13939C11.8262 6.85021 12.0595 6.61621 12.3479 6.61621H14.4349C14.7232 6.61621 14.9566 6.85021 14.9566 7.13939C14.9566 7.42856 14.7232 7.66257 14.4349 7.66257Z" fill="#FFFFFF"></path><path d="M21.7396 12.894H19.6526C19.3642 12.894 19.1309 12.66 19.1309 12.3708C19.1309 12.0817 19.3642 11.8477 19.6526 11.8477H21.7396C22.0279 11.8477 22.2613 12.0817 22.2613 12.3708C22.2613 12.66 22.0279 12.894 21.7396 12.894Z" fill="#FFFFFF"></path><path d="M26.4409 21.9244L17.2997 22.7214C16.4534 22.7952 15.6048 22.6083 14.8673 22.1857L12.3478 20.7421H18.2266C19.0139 20.7421 19.6522 20.1021 19.6522 19.3126V19.3126C19.6522 18.6247 19.1636 18.0343 18.4893 17.9075L13.2107 16.9151C11.9425 16.6766 10.655 16.5566 9.3647 16.5566H5.04346V24.1317L13.6257 27.7194C14.5756 28.0765 15.6267 28.0715 16.5936 27.8267L28 23.358V23.3577C28 22.5139 27.2792 21.8513 26.4409 21.9244Z" fill="#FFD1BC"></path><path d="M7.13043 26.4965H4.52174C4.23359 26.4965 4 26.2623 4 25.9733V16.0329C4 15.744 4.23359 15.5098 4.52174 15.5098H7.13043C7.41858 15.5098 7.65217 15.744 7.65217 16.0329V25.9733C7.65217 26.2623 7.41858 26.4965 7.13043 26.4965Z" fill="#E03C31"></path></svg>