<svg xmlns="http://www.w3.org/2000/svg" width="32" height="32" viewBox="0 0 32 32" fill="none"><g clip-path="url(#clip0_30842_31077)"><path d="M28.0722 14.7684C28.1459 15.1037 28.6357 15.3236 29.1637 15.2558C29.6891 15.1825 30.0423 14.8499 29.9678 14.5081C29.8843 14.1719 29.4007 13.952 28.87 14.0262C28.3491 14.094 27.9852 14.4238 28.0722 14.7684ZM31.3921 14.7931C31.7817 14.739 32.0559 14.4898 31.9902 14.236C31.9263 13.9776 31.5669 13.8154 31.1694 13.8686C30.7824 13.9236 30.5118 14.17 30.5686 14.4238C30.6325 14.6804 30.9972 14.8426 31.3921 14.7931ZM20.4296 9.93406C20.8325 9.88 21.0987 9.62986 21.0366 9.37788C20.9798 9.12132 20.6124 8.96005 20.2228 9.00862C19.8208 9.06543 19.551 9.31649 19.614 9.57305C19.6735 9.82594 20.0329 9.98262 20.4296 9.93406ZM26.915 16.8126C26.3807 16.5725 25.6317 16.6742 25.2324 17.038C24.8437 17.4018 24.9555 17.8883 25.4898 18.122C26.0267 18.3574 26.7801 18.2585 27.1697 17.8975C27.5655 17.5365 27.4483 17.0499 26.915 16.8126ZM27.4483 14.8554C27.3507 14.4238 26.7375 14.149 26.0852 14.2424C25.4294 14.3322 24.9768 14.7491 25.0718 15.1725C25.1721 15.5958 25.787 15.8679 26.4464 15.7799C27.096 15.6911 27.5468 15.2742 27.4483 14.8554ZM26.915 10.8806C27.2309 11.0235 27.6888 10.9566 27.9231 10.745C28.1574 10.5232 28.0873 10.2364 27.7687 10.0898C27.4483 9.94597 26.9966 10.0064 26.7623 10.2282C26.5254 10.4481 26.5973 10.7358 26.915 10.8806ZM25.4179 12.2651C25.8465 12.4557 26.4473 12.3778 26.7552 12.0837C27.0738 11.7978 26.9824 11.4056 26.5573 11.2114C26.1269 11.0263 25.527 11.1097 25.2084 11.3974C24.8961 11.6869 24.9857 12.0763 25.4179 12.2651ZM14.5335 11.357C14.2149 11.2187 13.7596 11.2764 13.5333 11.4963C13.2875 11.7117 13.3611 12.0049 13.6771 12.1451C13.9983 12.2862 14.4483 12.2266 14.6825 12.0113C14.9177 11.7987 14.8494 11.5009 14.5335 11.357ZM22.2746 12.5629C22.177 12.1414 21.562 11.8665 20.9053 11.9572C20.2557 12.047 19.8013 12.4621 19.9042 12.8854C19.9965 13.3106 20.6124 13.5827 21.2664 13.4902C21.9258 13.4068 22.3766 12.9871 22.2746 12.5629ZM25.0407 12.6096C24.5136 12.3714 23.761 12.4731 23.3679 12.8304C22.973 13.1997 23.0937 13.6826 23.6155 13.9199C24.1586 14.1581 24.9049 14.0537 25.2972 13.6945C25.6894 13.3298 25.5758 12.8451 25.0407 12.6096ZM30.7203 18.8926C30.3982 18.7487 29.9367 18.811 29.7077 19.0282C29.4673 19.2444 29.5382 19.5395 29.8613 19.6751C30.1816 19.8235 30.6325 19.7584 30.8685 19.5431C31.1046 19.3287 31.0336 19.0382 30.7203 18.8926ZM29.0147 17.9405C28.5896 17.749 27.9852 17.8297 27.6675 18.1229C27.3516 18.4133 27.4474 18.8046 27.8743 18.9934C28.302 19.1821 28.9028 19.0996 29.2188 18.811C29.5311 18.5196 29.4389 18.1284 29.0147 17.9405ZM16.5293 12.0498C16.0989 11.8546 15.491 11.938 15.176 12.2266C14.8636 12.5226 14.9541 12.912 15.3783 13.0989C15.8149 13.2895 16.4148 13.2061 16.7219 12.9184C17.0405 12.6298 16.9491 12.2403 16.5293 12.0498ZM20.8138 11.5559C21.3392 11.4853 21.6968 11.1518 21.6161 10.8146C21.5362 10.4692 21.0464 10.2566 20.5254 10.3281C19.9956 10.3986 19.6415 10.7276 19.7179 11.0721C19.8013 11.4056 20.2903 11.6237 20.8138 11.5559ZM17.4824 14.2268C18.0131 14.4632 18.763 14.3652 19.1552 14.0005C19.551 13.6432 19.4348 13.1502 18.9032 12.9156C18.3698 12.6765 17.6208 12.7745 17.2242 13.1383C16.8364 13.5066 16.9455 13.9904 17.4824 14.2268Z" fill="#04BAEE"></path><path d="M5.50744 14.6245C5.164 14.6245 4.99095 14.7492 4.99095 14.9856C4.99095 15.1395 5.05307 15.2604 5.1782 15.3576C5.24121 15.4016 5.35746 15.43 5.53317 15.43C6.14018 15.4171 7.20954 15.9138 7.20954 16.9354V17.4229C6.72944 17.1599 6.28306 17.0362 5.87217 17.0362C4.85517 17.0362 4.34578 17.7747 4.34578 19.2564V19.3049C4.34578 19.8391 4.4789 20.2505 4.73803 20.5382C4.9945 20.825 5.3122 20.9634 5.69202 20.9634C6.26708 20.9634 6.77736 20.6821 7.20954 20.1149V20.6528C7.29917 20.8635 7.4456 20.9634 7.66302 20.9634C7.86625 20.9634 8.01445 20.8626 8.10674 20.6528V16.9354C8.10674 15.3961 6.7321 14.6245 5.50744 14.6245ZM7.20954 19.3049C6.92822 19.8446 6.51024 20.1149 5.93784 20.1149C5.46928 20.1149 5.23499 19.8932 5.23499 19.4515V19.2564C5.23499 18.2897 5.50744 17.8123 6.04345 17.8123C6.31944 17.8123 6.71435 17.9461 7.20954 18.2255V19.3049ZM1.92308 11.5449H0V20.6537C0.0816442 20.8644 0.228959 20.9698 0.447268 20.9698C0.661141 20.9698 0.81023 20.8644 0.8901 20.6537V16.8914H1.83256C2.41117 16.8914 2.87707 16.6651 3.23027 16.2225C3.58702 15.7809 3.75652 15.2275 3.75652 14.5815V13.8301C3.75652 12.3054 3.15662 11.5449 1.92308 11.5449ZM2.87175 14.5815C2.87175 15.6004 2.52742 16.1117 1.83345 16.1117H0.8901V12.3201H1.95236C2.56203 12.3201 2.87175 12.825 2.87175 13.8301V14.5815ZM12.9078 14.8894C12.6912 14.9113 12.5404 15.0112 12.4605 15.2064V19.797C11.9618 20.0609 11.5873 20.1855 11.3388 20.1855C10.8764 20.1855 10.6466 19.7209 10.6466 18.7826V15.2073C10.5543 14.9984 10.4088 14.8903 10.21 14.8903C9.97923 14.9123 9.83991 15.0121 9.75826 15.2073V18.7836C9.75826 20.2404 10.2268 20.9643 11.1684 20.9643C11.5447 20.9643 11.9742 20.8342 12.4614 20.5749V22.2031C12.4614 22.631 12.3931 22.9279 12.2404 23.1139C12.0913 23.3008 12.0159 23.4438 12.0159 23.5427C12.0292 23.7681 12.1322 23.9193 12.3256 24C12.6353 24 12.89 23.813 13.0977 23.4438C13.2743 23.1368 13.355 22.795 13.355 22.4221V15.2073C13.261 14.9984 13.1128 14.8894 12.9078 14.8894ZM21.9446 14.6493C21.168 14.6493 20.6356 14.9856 20.3454 15.648C20.1635 16.1062 20.0694 16.8319 20.0694 17.8196C20.0694 18.812 20.1635 19.5441 20.3454 20.015C20.6125 20.7151 21.1033 21.0642 21.8327 21.0642C22.6288 21.0642 23.1728 20.7242 23.4505 20.0398C23.6458 19.5844 23.7327 18.844 23.7327 17.8205C23.7327 16.798 23.6591 16.0778 23.5038 15.649C23.2349 14.9856 22.7148 14.6493 21.9446 14.6493ZM22.816 19.3306C22.682 19.9546 22.3696 20.2634 21.9037 20.2634C21.2399 20.2634 20.9142 19.4469 20.9142 17.8187C20.9142 17.0371 20.9417 16.5442 20.9843 16.3261C21.1042 15.7452 21.4245 15.4538 21.9277 15.4538C22.3954 15.4538 22.6962 15.7525 22.816 16.3554C22.8684 16.5826 22.8915 17.0664 22.8915 17.8187C22.8915 18.5884 22.8684 19.0896 22.816 19.3306ZM16.824 14.6493C16.0431 14.6493 15.5044 14.9856 15.2142 15.648C15.0376 16.1062 14.9373 16.8319 14.9373 17.8196C14.9373 18.812 15.0376 19.5441 15.2142 20.015C15.4858 20.7151 15.9765 21.0642 16.7042 21.0642C17.5047 21.0642 18.046 20.7242 18.33 20.0398C18.5182 19.5844 18.6113 18.844 18.6113 17.8205C18.6113 16.798 18.5297 16.0778 18.3708 15.649C18.1055 14.9856 17.5863 14.6493 16.824 14.6493ZM17.6946 19.3306C17.5482 19.9546 17.242 20.2634 16.7735 20.2634C16.1132 20.2634 15.7893 19.4469 15.7893 17.8187C15.7893 17.0371 15.815 16.5442 15.8567 16.3261C15.9774 15.7452 16.2969 15.4538 16.8019 15.4538C17.2695 15.4538 17.5713 15.7525 17.6946 16.3554C17.7354 16.5826 17.7576 17.0664 17.7576 17.8187C17.7576 18.5884 17.7354 19.0896 17.6946 19.3306Z" fill="#004F9E"></path></g><defs><clipPath id="clip0_30842_31077"><rect width="32" height="32" fill="white"></rect></clipPath></defs></svg>