<svg xmlns="http://www.w3.org/2000/svg" width="32" height="32" viewBox="0 0 32 32" fill="none"><path d="M27.2667 25H4.73333C3.77653 25 3 24.2669 3 23.3636V8.63636C3 7.73309 3.77653 7 4.73333 7H27.2667C28.2235 7 29 7.73309 29 8.63636V23.3636C29 24.2669 28.2235 25 27.2667 25Z" fill="#505050"></path><rect x="3" y="11" width="26" height="3" fill="#999999"></rect><path opacity="0.9" d="M24 23C25.6569 23 27 21.6569 27 20C27 18.3431 25.6569 17 24 17C22.3431 17 21 18.3431 21 20C21 21.6569 22.3431 23 24 23Z" fill="#A6732B"></path><path opacity="0.9" d="M20 23C21.6569 23 23 21.6569 23 20C23 18.3431 21.6569 17 20 17C18.3431 17 17 18.3431 17 20C17 21.6569 18.3431 23 20 23Z" fill="#E03C31"></path></svg>